<?xml version="1.0" encoding="UTF-8" standalone="no"?>
<!DOCTYPE svg PUBLIC "-//W3C//DTD SVG 1.1//EN" "http://www.w3.org/Graphics/SVG/1.1/DTD/svg11.dtd">
<svg xmlns="http://www.w3.org/2000/svg" xmlns:xlink="http://www.w3.org/1999/xlink" version="1.1" width="612pt" height="792pt" viewBox="0 0 612 792">
<g enable-background="new">
<text xml:space="preserve" transform="matrix(.75 0 0 .75 0 0)" font-size="14.6921" font-family="F1"><tspan y="15.68" x="0"> </tspan></text>
<text xml:space="preserve" transform="matrix(.75 0 0 .75 0 0)" font-size="14.6921" font-family="F1"><tspan y="33.44" x="0"> </tspan></text>
<text xml:space="preserve" transform="matrix(.75 0 0 .75 0 0)" font-size="14.6921" font-family="F1"><tspan y="51.2" x="0"> </tspan></text>
<text xml:space="preserve" transform="matrix(.75 0 0 .75 0 0)" font-size="14.6921" font-family="F1"><tspan y="68.96" x="0"> </tspan></text>
<text xml:space="preserve" transform="matrix(.75 0 0 .75 0 0)" font-size="14.6921" font-family="F1"><tspan y="86.72" x="0"> </tspan></text>
<text xml:space="preserve" transform="matrix(.75 0 0 .75 0 0)" font-size="14.6921" font-family="F1"><tspan y="104.48" x="0"> </tspan></text>
<text xml:space="preserve" transform="matrix(.75 0 0 .75 0 0)" font-size="18.6845" font-family="F2" font-weight="bold"><tspan y="175.52" x="0 4.671125 9.34225 13.8265299 18.497654 23.16878 27.839905 32.51103">        </tspan></text>
<text xml:space="preserve" transform="matrix(.75 0 0 .75 0 0)" font-size="15.9697" font-family="F2" font-weight="bold"><tspan y="175.52" x="37.28"> </tspan></text>
<text xml:space="preserve" transform="matrix(.75 0 0 .75 0 0)" font-size="18.6845" font-family="F1"><tspan y="197.76" x="0"> </tspan></text>
<text xml:space="preserve" transform="matrix(.75 0 0 .75 0 0)" font-size="18.6845" font-family="F1"><tspan y="220.8" x="0"> </tspan></text>
<text xml:space="preserve" transform="matrix(.75 0 0 .75 0 0)" font-size="18.6845" font-family="F1"><tspan y="243.84" x="0"> </tspan></text>
<text xml:space="preserve" transform="matrix(.75 0 0 .75 0 0)" font-size="18.6845" font-family="F1"><tspan y="266.72" x="0"> </tspan></text>
<text xml:space="preserve" transform="matrix(.75 0 0 .75 0 0)" font-size="18.6845" font-family="F1"><tspan y="289.76" x="0"> </tspan></text>
<text xml:space="preserve" transform="matrix(.75 0 0 .75 0 0)" font-size="18.6845" font-family="F1"><tspan y="312.64" x="0"> </tspan></text>
<text xml:space="preserve" transform="matrix(.75 0 0 .75 0 0)" font-size="18.6845" font-family="F2" font-weight="bold"><tspan y="387.2" x="0"> </tspan></text>
<text xml:space="preserve" transform="matrix(.75 0 0 .75 0 0)" font-size="18.6845" font-family="F2" font-weight="bold"><tspan y="409.76" x="34.88"> </tspan></text>
<text xml:space="preserve" transform="matrix(.75 0 0 .75 0 0)" font-size="18.6845" font-family="F2" font-weight="bold"><tspan y="432.32" x="34.88"> </tspan></text>
<text xml:space="preserve" transform="matrix(.75 0 0 .75 0 0)" font-size="18.6845" font-family="F2" font-weight="bold"><tspan y="454.88" x="34.88"> </tspan></text>
<text xml:space="preserve" transform="matrix(.75 0 0 .75 0 0)" font-size="18.6845" font-family="F2" font-weight="bold"><tspan y="477.44" x="34.88"> </tspan></text>
<text xml:space="preserve" transform="matrix(.75 0 0 .75 0 0)" font-size="15.9697" font-family="F2" font-weight="bold"><tspan y="175.52" x="249.12"> </tspan></text>
<text xml:space="preserve" transform="matrix(.040389 0 0 .04284675 0 0)" font-size="327.68" font-family="F2" font-weight="bold"><tspan y="9768.8" x="647.68 860.672 1093.3248 1188.352 1375.1296 1561.9072 1656.9345 1853.5424">SKILLIFY</tspan></text>
<text xml:space="preserve" transform="matrix(.03852525 0 0 .04284675 0 0)" font-size="327.68" font-family="F2" font-weight="bold"><tspan y="9768.8" x="2171.04 2252.96 2331.603 2413.523 2495.4429 2580.6397 2659.2828 2741.2027 2823.1226 2905.0426 2986.9625 3068.8824 3150.8023 3232.7222">              </tspan></text>
<text xml:space="preserve" transform="matrix(.0329325 0 0 .036620998 0 0)" font-size="327.68" font-family="F2" font-weight="bold"><tspan y="11429.4" x="3880.64 13196.582 14209.113 14291.033 14376.2299 14454.873 14540.069 14618.713 14703.909 14782.553 14867.749">           </tspan></text>
<text xml:space="preserve" transform="matrix(.75 0 0 .75 0 0)" font-size="15.9697" font-family="F2" font-weight="bold"><tspan y="558.08" x="656.32 666.0125 675.4634 682.1382 691.58908 701.0944 706.8435 716.2944 720.72348 726.31289 738.85159">Toronto, ON</tspan></text>
<text fill="#ffffff" xml:space="preserve" transform="matrix(.75 0 0 .75 0 0)" font-size="21.2397" font-family="F2" font-weight="bold"><tspan y="558.08" x="750.4"> </tspan></text>
<text fill="#878787" xml:space="preserve" transform="matrix(.75 0 0 .75 0 0)" font-size="15.9697" font-family="F1"><tspan y="578.08" x="35.2 45.656724 54.759454 59.196348 63.843778 75.37659 83.72793 89.31732 98.066349 102.69756 112.11969 121.001277 130.03882 133.71186 142.59343 151.21707 159.9661 165.72859 170.1187 174.27082 183.15239 187.79982 196.42346 202.18596 211.06754 215.45764 219.84775 224.23786 228.62796 233.01807 237.40818 241.79828 246.18839 250.8196 255.13143 259.5215 263.83335 268.22346 272.61357 277.00367 281.39378 285.78388 290.17399 294.5641 298.9542 303.3443 307.7344 312.1245 316.51463 320.90473 325.29484 329.60667 333.99678 338.38688 342.77699 347.16709 351.5572 355.9473 360.3374 364.7275 369.1176 373.50773 377.89784 382.28794 386.67805 391.06816 395.69938 400.0112 404.4013 408.71315 413.10325 417.49336 421.88346 426.27357 430.66368 435.05378 439.44389 443.83399 448.2241 452.6142 457.0043 461.3944 465.78453 470.17463 474.56474 478.95484 483.34495 487.73506 492.12516 496.51527 500.90538 505.29548 509.68559 514.0757 518.38748 522.7775 527.1676 531.5577 535.94778 540.3378 544.7279 549.3591 553.67086 558.0609 562.3727 566.76278 571.15286 575.5429 579.933 584.32308 588.71316 593.1032 597.4933 601.88339 606.27346 610.6635 615.0536 619.44369 623.83377 628.2238">Software Engineer Intern                                                                                                </tspan></text>
<text xml:space="preserve" transform="matrix(.034796999 0 0 .036620998 0 0)" font-size="327.68" font-family="F2" font-weight="bold"><tspan y="11839" x="13659.8 13892.453 14085.784 14282.393 14377.42 14459.34 14642.841 14829.619 15016.397 15199.898 15285.095 15396.506 15589.837 15675.033 15881.472 16019.098 16205.875 16369.715 16556.493 16753.1">Aug. 2022 to Present</tspan></text>
<text xml:space="preserve" transform="matrix(.75 0 0 .75 0 0)" font-size="15.9697" font-family="F2" font-weight="bold"><tspan y="578.08" x="782.56"> </tspan></text>
<text xml:space="preserve" transform="matrix(.0323565 0 0 .03039525 0 0)" font-size="327.68" font-family="F3"><tspan y="14781.1" x="815.84 930.528">&#x2022; </tspan></text>
<text xml:space="preserve" transform="matrix(.75 0 0 .75 0 0)" font-size="15.9697" font-family="F1"><tspan y="599.04" x="44.96 56.071729 65.014759 72.85925 81.60828 85.17963 93.96296 103.09407 106.66542 115.547008 124.58454 128.97464 133.41155 142.16057 150.62451 155.27194 164.15352 169.91603 178.66506 186.1708 190.56092 195.19214 203.97547 209.73796 214.12807 224.5848 232.72934 236.30069 239.87204 243.22568 246.79703 251.23394 259.21879 263.6089 268.3998 277.2814 281.6715 290.93397 296.69645 300.2678 307.93327 316.68229 321.3135 330.44465 339.06828 344.97706 349.41395 358.29554 363.88493 377.26579 385.61714 394.49873 402.96266 411.71168 416.10179 424.45314 433.33473 442.59718 446.98728 455.86888 465.13133 469.77876 473.1324 486.70664 490.27799 497.46437 506.21339 510.6035 519.38687 527.73818 535.58267 539.154 548.09707 556.561 561.2084 564.7797 573.56307 582.44467 587.0758 591.5127 600.3943 606.1568 610.5469 615.33779 624.1211 632.8701">Developing features for Skillify to drive performance and optimize navigation for the </tspan></text>
<text fill="#0000ff" xml:space="preserve" transform="matrix(.75 0 0 .75 0 0)" font-size="15.9697" font-family="F1"><tspan y="599.04" x="637.92 648.3767 656.52127 660.0926 663.4462 667.0176 670.5889 675.0258 683.17037 687.1628 695.5297">Skillify.ca</tspan></text>
<text xml:space="preserve" transform="matrix(.75 0 0 .75 0 0)" font-size="15.9697" font-family="F1"><tspan y="599.04" x="703.84 708.2301 719.888 728.637 737.7681 745.37088 748.9422 753.5896 762.3386 766.33108 770.7211"> website.  </tspan></text>
<path transform="matrix(.75,0,0,.75,0,0)" d="M 637.92 600.64 L 703.84 600.64 L 703.84 601.44 L 637.92 601.44 Z " fill="#0000ff"/>
<text xml:space="preserve" transform="matrix(.0323565 0 0 .03039525 0 0)" font-size="327.68" font-family="F3"><tspan y="15369.4" x="815.84 930.528">&#x2022; </tspan></text>
<text xml:space="preserve" transform="matrix(.75 0 0 .75 0 0)" font-size="15.9697" font-family="F1"><tspan y="622.88" x="44.96 56.110719 63.71348 67.38651 76.268108 85.30564 89.617458 100.15746 108.90649 117.25783 125.62476 130.09629 134.08872 138.47882 148.06064 156.04549 165.1766 173.92563 184.38236 192.7493 198.5118 202.08315 211.21427 215.68579 219.67823 224.06833 235.56652 244.44809 253.71051 262.45954 266.45198 274.32768 284.7844 288.61714 293.00724 303.54725 312.29627 321.23933 330.1209 337.94984 341.94227 346.33238 357.4831 366.9183 380.28358 389.16517 393.3173 397.62913 409.06056 419.44087 429.89759 434.0497 438.43983 446.79118 455.67277 464.9352 469.24705 478.12864 482.77607 491.65766 500.40669 506.16917 510.481 514.9525 523.8955 532.26248 541.0458 549.92739 559.0301 562.60147 571.48306 580.52059 584.0919 592.7155 600.31826 604.151">Using React, TypeScript, Node.JS, Redux, HTML, CSS, and other technologies. </tspan></text>
<text xml:space="preserve" transform="matrix(.0323565 0 0 .03039525 0 0)" font-size="327.68" font-family="F3"><tspan y="15957.6" x="815.84 930.528">&#x2022; </tspan></text>
<text xml:space="preserve" transform="matrix(.75 0 0 .75 0 0)" font-size="15.9697" font-family="F1"><tspan y="646.72" x="44.96 55.41672 63.56127 67.13262 70.48626 74.05761 77.62896 82.06586 90.050708 94.44082 98.01217 105.61493 110.00504 118.46898 127.35056 131.74066 141.48218 150.6133 155.26073 164.00975 172.3767 181.16002 185.55013 193.1529 197.9438 206.08835 211.85085 216.49828 225.37985 234.51097 238.90108 243.54851 252.43009 260.894 265.54145 269.93156 274.36845 283.25004 291.71397 300.49729 308.10005 316.84907 324.3548 328.98603 337.76936 346.65095 351.04106 360.3035 365.89289 374.77449 382.61897 386.1903 395.32145 398.67509 407.7778 416.81535 421.20545 430.4679 439.21693 444.9794 452.58216 461.36549 470.24708 478.711 482.28236 485.636 492.99705 501.74607 511.0085 515.3986 523.76559 532.64718 540.9985 549.3654 558.247 561.81838 570.69998 579.7375 583.7299 623.3347">Skillify is an Edtech startup that focuses on providing personalized coaching.  </tspan></text>
<text xml:space="preserve" transform="matrix(.034796999 0 0 .036620998 0 0)" font-size="327.68" font-family="F2" font-weight="bold"><tspan y="13844.5" x="751.84 12489.337">  </tspan></text>
<text xml:space="preserve" transform="matrix(.040389 0 0 .04284675 0 0)" font-size="327.68" font-family="F2" font-weight="bold"><tspan y="12222.2" x="647.68 883.6096 1116.2625 1211.2897 1427.5585 1633.997 1853.5426 2066.5347 2161.5618 2361.4466 2577.7154 2659.6353 2918.5025 3115.1107 3197.0306 3508.3265 3740.9793 3940.864 4144.026 4363.572 4547.0729 4805.94 5068.084 5153.281 5231.924 5313.8439 5399.0407 5477.6838 5562.8806 5644.8005 5726.72 5808.64 5890.56 5972.48 6054.4 6139.5969 6221.5168 6300.1599 6385.3566 6467.2766 6549.1965 6631.116 6713.036 6794.956 6876.876 6962.0729 7043.9929 7125.9128 7207.8327 7289.7526 7371.6726 7453.5925 7538.789 7617.432 7699.352 7784.549 7863.192 7948.3889 8030.3088 8112.2287 8194.148 8276.068 8361.265 8439.908 8525.1049 8607.024 8688.944 8770.864 8852.784 8934.704 9016.624 9101.82 9180.464 9262.384 9347.58 9429.5 9511.42 9593.34 9675.26 9757.18 9839.1 9924.296 10006.216">UNIVERSITY OF WATERLOO                                                             </tspan></text>
<text xml:space="preserve" transform="matrix(.034796999 0 0 .036620998 0 0)" font-size="327.68" font-family="F2" font-weight="bold"><tspan y="14300" x="11707.8 11789.72 11874.916 11956.836 12038.756 12120.676 12205.872 12284.516 12366.436">        2</tspan></text>
<text xml:space="preserve" transform="matrix(.75 0 0 .75 0 0)" font-size="15.9697" font-family="F2" font-weight="bold"><tspan y="698.24" x="582.4 591.46878 600.5375 604.5299 615.9302 625.43557 629.90707 638.6717 647.8028 654.4776 662.6574 666.8095 672.36929 681.25088 685.2433 696.6279 705.3926 714.5237 718.5161 733.49557 737.9246 741.91708 756.8965 765.83956 771.3993 780.5304 787.2052 791.5641 801.01498">00 University Ave W, Waterloo</tspan></text>
<text fill="#878787" xml:space="preserve" transform="matrix(.75 0 0 .75 0 0)" font-size="15.9697" font-family="F1"><tspan y="698.24" x="810.72"> </tspan></text>
<text fill="#878787" xml:space="preserve" transform="matrix(.75 0 0 .75 0 0)" font-size="15.9697" font-family="F1"><tspan y="718.08" x="35.2 44.635225 53.38425 61.735597 70.10253 78.98412 82.55547 91.437068 100.4746 104.86471 115.724109 123.229869 130.83263 134.40398 142.00675 146.65418 155.00551 163.88709 168.53452 172.84635 177.23645 181.62656 186.01667 190.40677 194.7186 199.1087 203.49881 208.13002 212.44185 216.83196 221.14379 225.53389 229.924 234.3141 238.70421 243.09432 247.48442 251.87453 256.26463 260.65473 265.04484 269.43495 273.82505 278.21516 282.60527 286.99537 291.38548 295.77558 300.16569 304.5558 308.9459 313.336 317.7261 322.1162 326.50633 330.89643 335.28654 339.67665 344.06675 348.45686 352.84696 357.15879 361.79 366.10185 370.49195 374.80378 379.19389 383.58399 387.9741 392.3642 396.7543 401.1444 405.53453 409.92463 414.31474 418.70484 423.09495 427.48506 431.87516 436.26527 440.65538 445.04548 449.43559 453.82569 458.2158 462.6059 466.996 471.3861 475.7762 480.16633 484.55644 488.94654 493.33665 497.72676 502.11686 506.50697 510.89707 515.2872 519.59896 524.2301 528.5419 532.93197 537.2437 541.6338 546.02389 550.41397 554.804 559.1941 563.58419 567.97427 572.3643 576.7544 581.1445 585.53457 589.9246 594.3147 598.7048 603.09487 607.4849 611.875 616.2651 620.65518 625.0452">Teaching Assistant                                                                                                         </tspan></text>
<text xml:space="preserve" transform="matrix(.034796999 0 0 .036620998 0 0)" font-size="327.68" font-family="F2" font-weight="bold"><tspan y="14706.2" x="13590.9 13771.125 13948.072 14141.403 14233.154 14315.074 14501.853 14685.354 14868.8549 15055.633 15144.106 15255.518 15448.849 15563.536 15792.912 15992.797 16133.699 16225.45 16294.263 16481.04 16667.817 16854.594">Jan. 2018 to Apr. 2018</tspan></text>
<text xml:space="preserve" transform="matrix(.75 0 0 .75 0 0)" font-size="15.9697" font-family="F2" font-weight="bold"><tspan y="718.08" x="790.4"> </tspan></text>
<text xml:space="preserve" transform="matrix(.0323565 0 0 .03039525 0 0)" font-size="327.68" font-family="F3"><tspan y="18235.5" x="815.84 930.528">&#x2022; </tspan></text>
<text xml:space="preserve" transform="matrix(.75 0 0 .75 0 0)" font-size="15.9697" font-family="F1"><tspan y="739.04" x="44.96 59.409147 68.51188 74.27438 82.25923 91.008258 100.139369 104.52947 113.66058 122.011928 127.77443 132.42186 136.73369 141.5246 145.09595 158.3508 166.97444 171.36455 179.82849 187.43126 191.82137 200.28531 204.59714 214.03237 222.78139 231.13272 239.49967 248.38124 251.95259 260.8342 269.87174 274.26185 285.12126 292.62699 300.22975 303.90278 311.50553 316.15296 324.5043 333.3859 338.03334 342.42344 346.73527 355.61686 361.52565 365.83747 377.2689 387.72563 396.6072 405.4888 414.3704 418.7605 422.91264 431.79423 436.44166 442.20414 451.08573 460.21687 469.09846 477.46537 482.1128 485.68415 494.56575 503.34907 507.73918 512.5301 521.4117 525.72348 537.1549 546.0365 559.6107 568.7418 577.6234 582.2708 591.01986 596.60928 600.9993 611.69906 620.066 623.6373 632.2609 641.1425 649.6065 658.3555 662.1883">Worked part time as a Teaching Assistant for CS115 Introduction to Computer Science. </tspan></text>
<text xml:space="preserve" transform="matrix(.0323565 0 0 .03039525 0 0)" font-size="327.68" font-family="F3"><tspan y="18823.8" x="815.84 930.528">&#x2022; </tspan></text>
<text xml:space="preserve" transform="matrix(.75 0 0 .75 0 0)" font-size="15.9697" font-family="F1"><tspan y="762.88" x="44.96 59.409147 68.51188 74.27438 82.25923 91.008258 100.139369 104.45118 113.33277 122.21436 131.1574 136.47544 145.09908 153.98065 159.41036 168.29193 177.17351 185.92253 190.31264 201.84545 205.4168 210.06423 218.9458 223.3359 231.79985 236.18996 244.03446 247.6058 255.20858 264.09019 272.44154 276.01289 279.58424 287.4094 291.7995 295.47254 308.8534 317.98454 326.33589 329.90724 335.4966 344.43965 353.57078 357.8826 365.48536 370.13279 379.01438 388.1455 396.89454 405.77613 410.56706 414.55949 418.9496 430.4824 439.26573 448.1473 452.5374 461.00135 469.88294 483.45719 492.58833 495.94197 504.69099 509.4819 518.23098 527.174 531.5641 543.222 553.6023 562.4839 571.2672 580.1488 584.77999 596.3128 599.66647 604.45736 613.3389 617.729 626.19296 630.5047 639.3863 648.2679 662.00186 665.8346">Worked one-on-one with a visually impaired student, who completed CS115 with a 95%. </tspan></text>
<text xml:space="preserve" transform="matrix(.0323565 0 0 .03039525 0 0)" font-size="327.68" font-family="F3"><tspan y="19412.2" x="815.84 930.528">&#x2022; </tspan></text>
<text xml:space="preserve" transform="matrix(.75 0 0 .75 0 0)" font-size="15.9697" font-family="F1"><tspan y="786.72" x="44.96 55.291959 64.04098 72.02583 75.59718 84.220829 95.75363 104.502658 113.633769 118.02387 129.68177 138.56334 144.32585 152.3107 156.30313 160.69324 169.95566 178.70468 187.8358 196.61913 205.56215 214.59969 223.54273 232.67385 236.98567 245.35262 254.23419 263.36534 272.11436 276.10679 280.4969 288.84825 297.72984 306.86097 311.25108 315.68797 324.1519 332.5188 335.87245 339.4438 343.01515 347.66258 356.01393 360.66136 369.41038 378.5415 382.9316 386.60466 395.35368 403.70503 409.4675 418.3491 421.92045 430.80204 439.83958 444.1514 453.033 460.85813 464.42948 473.31108 482.25413 486.64424 495.52583 504.27485 512.62619 518.3887 521.96 530.74337 540.0058 544.3959 552.7472 560.2529 567.85568 571.427 579.0297 583.6771 592.02847 600.91006 609.277 618.026 622.4161 627.207 635.9903 644.8719 648.44326 656.04598 659.8787">Reviewed work, debugged code, and facilitated learning using hearing assistance tools. </tspan></text>
<text xml:space="preserve" transform="matrix(.029826 0 0 .033691504 0 0)" font-size="327.68" font-family="F2" font-weight="bold"><tspan y="18100.8" x="873.12"> </tspan></text>
<text xml:space="preserve" transform="matrix(.03852525 0 0 .04284675 0 0)" font-size="327.68" font-family="F2" font-weight="bold"><tspan y="14751.2" x="676 908.65286 1144.5824 1239.6096 1455.8784 1655.7633 1878.5857 2091.5777 2186.6048 2386.4896 2599.4815 2727.2767 2986.1439 3182.752 3290.8863 3598.9056 3828.2816 4028.1663 4231.328 4450.874 4631.098 4889.9655">UNIVERSITY OF WATERLOO</tspan></text>
<text xml:space="preserve" transform="matrix(.0329325 0 0 .036620998 0 0)" font-size="327.68" font-family="F2" font-weight="bold"><tspan y="17258.9" x="6019.52 12628.826 12710.746 12792.666 12874.586 12956.506 13038.426">       </tspan></text>
<text xml:space="preserve" transform="matrix(.75 0 0 .75 0 0)" font-size="15.9697" font-family="F2" font-weight="bold"><tspan y="842.72" x="576 585.0687 594.13748 603.39987 607.0729 618.4114 627.91677 632.27566 641.0403 650.1714 656.8462 665.026 669.3849 674.94467 683.82626 687.49929 698.8839 707.64859 716.911 720.7438 735.7232 740.1523 744.3044 759.2838 768.0641 773.62387 782.75497 789.42977 793.78866 803.2395">200 University Ave W, Waterloo</tspan></text>
<clipPath id="cp0">
<path transform="matrix(.75,0,0,.75,0,0)" d="M 812.96 827.04 L 816 827.04 L 816 846.4 L 812.96 846.4 Z " fill-rule="evenodd"/>
</clipPath>
<g clip-path="url(#cp0)">
<text xml:space="preserve" transform="matrix(.75 0 0 .75 0 0)" font-size="15.9697" font-family="F2" font-weight="bold"><tspan y="842.72" x="812.96"> </tspan></text>
</g>
<text fill="#878787" xml:space="preserve" transform="matrix(.75 0 0 .75 0 0)" font-size="15.9697" font-family="F1"><tspan y="862.72" x="34.88 38.89582 47.77741 55.380174 60.17108 65.933589 74.81518 83.18211 87.82955 91.4009 100.18424 109.065837 117.52977 121.10112 125.41294 136.11264 144.99422 154.12534 163.25646 172.13803 177.90053 182.37206 186.76216 197.41382 205.01659 212.61936 216.29239 223.89516 228.54259 236.89392 245.7755 250.42293 254.73476 259.12486 263.43669 268.0679 272.37974 276.76985 281.08168 285.47178 289.86189 294.25199 298.6421 303.0322 307.4223 311.8124 316.2025 320.59263 324.98274 329.37284 333.76295 338.15306 342.54316 346.93327 351.32337 355.71348 360.10359 364.49369 368.8838 373.2739 377.664 382.0541 386.4442 390.83433 395.22444 399.61454 404.00465 408.39476 412.78486 417.17497 421.56507 425.95518 430.34529 434.9765 439.28834 443.67845 447.99028 452.38038 456.77049 461.16059 465.5507 469.9408 474.3309 478.721 483.1111 487.50123 491.89134 496.28144 500.67155 505.06166 509.45176 513.84188 518.23196 522.5437 526.9338 531.32388 535.7139 540.104 544.4941 548.88418 553.27426 557.6643 562.0544 566.44448 570.83456 575.2246 579.6147 584.00479 588.6359 592.9477 597.33779 601.64956 606.0396 610.4297 614.81979 619.20986">Instructional Support Assistant                                                                                     </tspan></text>
<text xml:space="preserve" transform="matrix(.034796999 0 0 .036620998 0 0)" font-size="327.68" font-family="F2" font-weight="bold"><tspan y="17668.5" x="13463.2 13695.854 13892.462 14092.347 14184.098 14266.018 14452.796 14636.297 14823.075 15006.576 15098.326 15213.014 15406.345 15537.417 15770.07 15956.848 16137.071 16228.822 16307.466 16494.243 16681.02 16867.797">Aug. 2018 to Dec. 2018</tspan></text>
<text xml:space="preserve" transform="matrix(.75 0 0 .75 0 0)" font-size="15.9697" font-family="F2" font-weight="bold"><tspan y="862.72" x="791.04"> </tspan></text>
<text xml:space="preserve" transform="matrix(.75 0 0 .75 0 0)" font-size="14.6921" font-family="F1"><tspan y="883.04" x="58.08"> </tspan></text>
<path transform="matrix(.75,0,0,.75,0,0)" d="M 0 1.12 L 815.84 1.12 L 815.84 97.6 L 0 97.6 Z " fill="#002060"/>
<text fill="#eeece1" xml:space="preserve" transform="matrix(.09375 0 0 .111328508 0 0)" font-size="327.68" font-family="F3"><tspan y="304" x="220.16 403.66084 623.2064 846.0288 1065.5744 1304.7808 1580.032 1799.5775 2038.7839 2196.0704 2435.2767 2654.8223 2894.0286 2985.779 3224.9854 3444.531 3683.7374 3906.5596 4142.4895">LAKSHMAN HARIHARAN </tspan></text>
<text fill="#878787" xml:space="preserve" transform="matrix(.09375 0 0 .111328508 0 0)" font-size="327.68" font-family="F3"><tspan y="304" x="4236.8"> </tspan></text>
<path transform="matrix(.75,0,0,.75,0,0)" d="M 27.52 50.24 L 403.2 50.24 L 403.2 53.76 L 27.52 53.76 Z " fill="#d1334f"/>
<text fill="#eeece1" xml:space="preserve" transform="matrix(.04646025 0 0 .0549315 0 0)" font-size="327.68" font-family="F3"><tspan y="1070.4" x="444.32 516.4096 699.91049 883.4113 991.5457 1066.9121 1250.4129 1430.6369 1538.7713 1876.2816 2056.5057 2295.712 2475.936 2570.9632 2754.464 2862.5985 2937.9647 3121.4656 3301.6898 3393.4403 3560.5572 3740.7813 3832.5318 3927.5589 4016.0325 4107.7829 4199.533 4291.2839 4383.034 4474.7849 4566.535 4658.2858 4746.7595 4841.7868 4930.2604 5022.0109 5113.761 5221.896 5405.3967 5588.897 5769.1208 5880.532 5991.944 6172.1677 6355.668 6539.1687 6650.58 6834.0808 7014.304 7197.8049 7381.305 7650.003 7741.7536 7833.504 7925.2546 8017.005 8108.7556 8200.506 8292.257 8380.73 8475.758 8564.231 8659.259 8747.732">lharihar@uwaterloo.ca               (416)-908-7977              </tspan></text>
<text fill="#ff0000" xml:space="preserve" transform="matrix(.04646025 0 0 .0549315 0 0)" font-size="327.68" font-family="F3"><tspan y="1070.4" x="8841.12 9021.345 9093.435 9188.462 9368.687 9552.1879 9732.412 9824.163 9991.279 10174.78 10446.754 10541.781 10722.006 10902.23 11066.07 11233.187 11397.026 11636.232 11819.733 11927.867 12003.233 12186.734 12366.959 12478.37 12661.871">github.com/LuckyHariharan</tspan></text>
<text fill="#eeece1" xml:space="preserve" transform="matrix(.75 0 0 .75 0 0)" font-size="23.9545" font-family="F3"><tspan y="78.4" x="795.68"> </tspan></text>
<path transform="matrix(.75,0,0,.75,0,0)" d="M 547.68 80.96 L 795.68 80.96 L 795.68 82.72 L 547.68 82.72 Z " fill="#ff0000"/>
<path transform="matrix(.75,0,0,.75,0,0)" d="M .48 490.56 L 816 490.56 L 816 527.84 L .48 527.84 Z " fill="#002060"/>
<clipPath id="cp1">
<path transform="matrix(.75,0,0,.75,0,0)" d="M 0 485.44 L 816 485.44 L 816 533.12 L 0 533.12 Z " fill-rule="evenodd"/>
</clipPath>
<g clip-path="url(#cp1)">
<path transform="matrix(.75,0,0,.75,0,0)" stroke-width=".96" stroke-linecap="round" stroke-miterlimit="8" stroke-linejoin="miter" fill="none" stroke="#000000" d="M .48 490.56 L .48 527.84 L 824.96 527.84 L 824.96 490.56 Z "/>
</g>
<text fill="#ffffff" xml:space="preserve" transform="matrix(.75 0 0 .75 0 0)" font-size="19.962101" font-family="F3"><tspan y="514.72" x="10.56 16.106112 21.652224 27.198336 32.987344 46.16233 59.4769 72.651889 85.96645 100.38244 105.92855 119.24312 133.65912 148.23146 161.54602">    EXPERIENCE </tspan></text>
<path transform="matrix(.75,0,0,.75,0,0)" d="M 1.28 119.36 L 815.84 119.36 L 815.84 154.4 L 1.28 154.4 Z " fill="#002060"/>
<path transform="matrix(.75,0,0,.75,0,0)" stroke-width=".96" stroke-linecap="round" stroke-miterlimit="8" stroke-linejoin="miter" fill="none" stroke="#000000" d="M 1.28 119.36 L 1.28 154.4 L 815.84 154.4 L 815.84 119.36 Z "/>
<text fill="#ffffff" xml:space="preserve" transform="matrix(.75 0 0 .75 0 0)" font-size="19.962101" font-family="F3"><tspan y="143.52" x="11.36 16.90611 22.452223 27.998335 33.787343 46.962327 60.276895 65.823009 76.80216 88.180568 101.35555 107.344188 155.25324 203.3619 208.90799 214.45409 220.00019 225.54628 231.09238 236.63848 249.95304 264.36903 278.785 293.201 306.37599 318.5696 323.95939 339.72947 354.3018">    SKILLS         EDUCATION </tspan></text>
<clipPath id="cp2">
<path transform="matrix(.75,0,0,.75,0,0)" d="M 11.36 148.64 L 22.08 148.64 L 22.08 149.12 L 11.36 149.12 Z " fill-rule="evenodd"/>
</clipPath>
<g clip-path="url(#cp2)">
<text fill="#ffffff" xml:space="preserve" transform="matrix(.75 0 0 .75 0 0)" font-size="19.962101" font-family="F3"><tspan y="166.56" x="11.36"> </tspan></text>
</g>
<path transform="matrix(.75,0,0,.75,0,0)" d="M 0 359.84 L 697.44 359.84 L 697.44 487.2 L 0 487.2 Z " fill="#ffffff"/>
<clipPath id="cp3">
<path transform="matrix(.75,0,0,.75,0,0)" d="M 0 354.72 L 702.72 354.72 L 702.72 492.48 L 0 492.48 Z " fill-rule="evenodd"/>
</clipPath>
<g clip-path="url(#cp3)">
<path transform="matrix(.75,0,0,.75,0,0)" stroke-width=".96" stroke-linecap="round" stroke-miterlimit="8" stroke-linejoin="miter" fill="none" stroke="#ffffff" d="M -8.64 359.84 L -8.64 487.2 L 697.44 487.2 L 697.44 359.84 Z "/>
</g>
<text xml:space="preserve" transform="matrix(.040389 0 0 .04284675 0 0)" font-size="327.68" font-family="F2" font-weight="bold"><tspan y="6730.08" x="680.32 893.312 1125.9649 1220.9921 1407.7697 1594.5473 1689.5745 1886.1824 2102.4512 2184.371 2390.8094 2610.3548 2869.222 3049.446 3252.6077 3491.8143 3691.699">SKILLIFY PROJECTS</tspan></text>
<text xml:space="preserve" transform="matrix(.75 0 0 .75 0 0)" font-size="17.2473" font-family="F4" font-weight="bold"><tspan y="384.48" x="210.4"> </tspan></text>
<text fill="#0000ff" xml:space="preserve" transform="matrix(.75 0 0 .75 0 0)" font-size="17.2473" font-family="F3"><tspan y="384.48" x="215.2 224.79212 229.58396 234.3758 243.96791 252.59156 257.3834 262.17524 266.96708 276.5592 280.391 285.3927 294.87873 304.47087 314.063 318.85484 327.65098 337.2431 351.73085 356.52268 365.31883 373.94248 377.77427 381.60606 385.43785 389.26963 393.9264 402.72254 408.466 417.08967 426.57569">https://github.com/skillify-ca/</tspan></text>
<text xml:space="preserve" transform="matrix(.75 0 0 .75 0 0)" font-size="17.2473" font-family="F3"><tspan y="384.48" x="431.84"> </tspan></text>
<path transform="matrix(.75,0,0,.75,0,0)" d="M 215.2 386.24 L 431.84 386.24 L 431.84 387.52 L 215.2 387.52 Z " fill="#0000ff"/>
<text xml:space="preserve" transform="matrix(.0323565 0 0 .03039525 0 0)" font-size="327.68" font-family="F3"><tspan y="10075.2" x="852.96 967.648">&#x2022; </tspan></text>
<text xml:space="preserve" transform="matrix(.75 0 0 .75 0 0)" font-size="15.9697" font-family="F1"><tspan y="408.32" x="46.08 58.48615 67.61726 72.2647 75.83605 89.21691 92.78826 100.14929 108.898319 118.02943 122.41953 133.85099 142.73256 151.1965 159.56345 168.44503 172.01638 180.89795 189.9355 194.24733 205.26642 213.73036 221.33313 230.2147 239.34583 248.2274 256.69136 262.45384 271.58497 275.8968 280.528 289.27705 297.6284 302.0999 311.20265 316.96513 325.58876 329.97886 334.62629 343.50788 347.89799 351.571 364.82588 373.957 379.71949 388.60108 396.44557 405.19459 409.5847 418.84715 427.72874 436.61033 441.40126 449.76817 457.9127 471.48695 480.61808 485.00819 493.7572 501.58613 510.71726 519.4663 525.0557 528.6271 537.3761 546.2577 554.7217 563.4707 567.8608 576.7424 584.5675 588.13888 596.9222 605.9597 610.2715 620.6034 629.3524 637.81637 646.1833 650.6548 654.6472">Optimized Coaching Dashboard feature to improve bootcamp experience using React, </tspan></text>
<text xml:space="preserve" transform="matrix(.75 0 0 .75 0 0)" font-size="15.9697" font-family="F1"><tspan y="430.56" x="46.56 55.995225 63.980073 73.11118 81.86021 92.316928 100.78086 106.543369 110.114719 119.05775 123.705188 127.69761 132.0877 140.55165 149.43323 158.56435 162.95446 174.93172 180.69423 189.04557 197.9886 206.87018 219.48624">TypeScript, and GraphQL</tspan></text>
<text xml:space="preserve" transform="matrix(.75 0 0 .75 0 0)" font-size="15.9697" font-family="F2" font-weight="bold"><tspan y="430.56" x="228.64">.</tspan></text>
<text xml:space="preserve" transform="matrix(.75 0 0 .75 0 0)" font-size="15.9697" font-family="F1"><tspan y="430.56" x="233.12 237.43183">  </tspan></text>
<text xml:space="preserve" transform="matrix(.0323565 0 0 .03039525 0 0)" font-size="327.68" font-family="F3"><tspan y="11196.3" x="852.96 967.648">&#x2022; </tspan></text>
<text xml:space="preserve" transform="matrix(.75 0 0 .75 0 0)" font-size="15.9697" font-family="F1"><tspan y="453.76" x="46.08 57.511438 63.27394 72.022968 80.4869 85.13434 93.88336 103.01447 107.40458 115.75592 124.637508 129.0276 137.49155 141.0629 150.10045 158.84947 167.98059 173.74309 182.09442 186.48453 195.61565 204.49723 207.85086 215.2119 219.602 224.23322 233.11479 238.8773 243.18914 251.93816 255.5095 264.25856 277.6394 286.38844 295.49116 300.13859 308.48994 314.0793 322.06419 326.376 333.97877 338.76969 347.65129 356.7824 365.40605 374.28764 379.07856 386.6813 390.99314 399.87474 407.69987 411.2712 420.05455">Created an algebra quiz for elementary students using</tspan></text>
<text xml:space="preserve" transform="matrix(.75 0 0 .75 0 0)" font-size="15.9697" font-family="F2" font-weight="bold"><tspan y="453.76" x="429.76"> </tspan></text>
<text xml:space="preserve" transform="matrix(.75 0 0 .75 0 0)" font-size="15.9697" font-family="F1"><tspan y="453.76" x="433.6 443.93199 452.681 461.14494 469.51185 473.98338 477.9758 482.3659 491.94773 499.9326 509.06373 517.81277 528.19308 536.56 542.3225 545.89389 554.8369 559.4843 563.47677 567.8668 576.33078 585.21237 594.34347 598.7335 610.072 619.50729 632.8725 641.7541 645.58688">React, TypeScript, and HTML. </tspan></text>
<text xml:space="preserve" transform="matrix(.0323565 0 0 .03039525 0 0)" font-size="327.68" font-family="F3"><tspan y="11768.8" x="852.96 967.648">&#x2022; </tspan></text>
<text xml:space="preserve" transform="matrix(.75 0 0 .75 0 0)" font-size="15.9697" font-family="F1"><tspan y="476.96" x="46.08 56.536725 65.63946 69.21081 72.564449 77.21188 81.602 90.06593 98.94752 103.33762 111.80156 115.37291 118.72655 127.66958 136.55117 140.94127 145.5887 154.37203 163.31507 176.69593 185.44495 194.57607 198.96617 207.90921 217.01194 225.36327 230.95267 240.08379 244.47389 253.73632 262.08769 275.46855 284.21757 288.5294 297.41099 305.01374 308.68678 317.4701">Built an alien themed board game using</tspan></text>
<text xml:space="preserve" transform="matrix(.75 0 0 .75 0 0)" font-size="15.9697" font-family="F2" font-weight="bold"><tspan y="476.96" x="326.88"> </tspan></text>
<text xml:space="preserve" transform="matrix(.75 0 0 .75 0 0)" font-size="15.9697" font-family="F1"><tspan y="476.96" x="330.88 341.21199 349.961 358.42494 366.79185 371.26338 375.2558 379.6459 389.22773 397.2126 406.34373 415.09275 425.54948 434.0134 439.77589 443.34724 452.29029 456.9377 460.93016 465.32026 476.65876 486.09397 499.45924 508.34083 512.1736 516.56369 525.0276 533.8109 542.942 547.3321 558.99 569.3703 579.827 583.6598">React, TypeScript, HTML, and CSS. </tspan></text>
<path transform="matrix(.75,0,0,.75,0,0)" d="M 193.76 155.36 L 816 155.36 L 816 323.2 L 193.76 323.2 Z " fill="#ffffff"/>
<clipPath id="cp4">
<path transform="matrix(.75,0,0,.75,0,0)" d="M 193.76 155.36 L 816 155.36 L 816 323.36 L 193.76 323.36 Z " fill-rule="evenodd"/>
</clipPath>
<g clip-path="url(#cp4)">
<path transform="matrix(.75,0,0,.75,0,0)" stroke-width=".5" stroke-linecap="round" stroke-linejoin="round" fill="none" stroke="#ffffff" d="M 193.76 155.36 L 193.76 323.2 L 828.32 323.2 L 828.32 155.36 Z "/>
</g>
<text xml:space="preserve" transform="matrix(.75 0 0 .75 0 0)" font-size="18.6845" font-family="F2" font-weight="bold"><tspan y="178.56" x="238.24 251.10385 264.42387 277.97196 291.44706 303.03144 313.3079 327.97816 340.5683 345.2394 359.81333 370.95286 375.62397 391.8999 404.97908 416.31935 429.79444 441.3788 457.65476 470.97477 482.18547 487.6868 501.13966 513.2098 518.3918 523.0629 536.3289 549.731 555.23239 567.3773 578.96176 591.48037 603.5505 609.0518 620.2625 632.48776 637.3457 651.9196 663.0592 667.73037 685.2562 698.57626 709.6001 721.1845 733.77468 744.3395 758.9134 773.5837 777.8811">BACHELOR OF MATHEMATICS, UNIVERSITY OF WATERLOO  </tspan></text>
<text xml:space="preserve" transform="matrix(.75 0 0 .75 0 0)" font-size="15.9697" font-family="F2" font-weight="bold"><tspan y="198.4" x="238.08 249.2588 258.36155 267.624 276.7267 286.14888 292.69645 300.5216 304.35435 315.37345 323.83738 329.1074 338.52955 346.99348 353.38136 357.53346 366.15708 370.30918 373.9822 384.04313 392.66676 396.81886 405.6022 414.86466 423.32859 432.27165 435.94468 444.4086 453.83076 463.41258 467.0856 478.4241 487.68653 493.11625 502.37867 511.8008 520.5841 527.13168 535.7553 541.02529 545.17739 553.801 562.58438 566.2574 576.3183 581.58828 590.85067 600.4325 604.4249 613.368 621.5478">Honours Actuarial Science and Co-operative Studies </tspan></text>
<text xml:space="preserve" transform="matrix(.75 0 0 .75 0 0)" font-size="14.6921" font-family="F2" font-weight="bold"><tspan y="216.48" x="238.4 247.80295 256.32438 265.31324 270.42823 274.50297 277.88215 286.22535 294.4529 302.7961 311.1393 314.5185 319.63349 328.1549 331.68104 342.25935 351.2482 357.27198 361.53269 365.20573 373.4333 381.7765 390.1197">Sept. 2016 to Apr. 2021</tspan></text>
<text xml:space="preserve" transform="matrix(.75 0 0 .75 0 0)" font-size="15.9697" font-family="F2" font-weight="bold"><tspan y="216.48" x="398.4"> </tspan></text>
<text xml:space="preserve" transform="matrix(.0323565 0 0 .03039525 0 0)" font-size="327.68" font-family="F3"><tspan y="5846.88" x="5529.76 5644.4479">&#x2022; </tspan></text>
<text xml:space="preserve" transform="matrix(.75 0 0 .75 0 0)" font-size="15.9697" font-family="F1"><tspan y="236.96" x="247.84 258.0316 266.91319 270.5862 279.4678 288.3494 292.99684 301.74586 310.68888 316.27827 320.66838 329.54997 338.65269 343.1242 351.87324 356.52067 364.872 372.85688 381.6059 387.36839 391.75849 396.19538 405.2981 410.88749 415.2776 424.15919 433.04078 437.43089 445.7978 454.67939 463.56098 469.46977 476.9755 485.72453 493.32728 497.3197 501.7098 511.62849 517.391 526.2726 534.11709 537.6884 546.8195 555.56857 564.69967 569.0114 577.37838 580.732 589.481 597.94497 603.70748 608.09756 616.9791 625.44308 634.32467 643.45578 654.9886 660.7511 664.10476 668.8956 673.543 682.29208 691.17367 695.5637 704.66647 713.54806 718.19546 726.81906 734.42178 738.8118 743.443 752.3246 757.914">Volunteer notetaker for 15 courses. Provided clear handwritten notes for </tspan></text>
<text xml:space="preserve" transform="matrix(.75 0 0 .75 0 0)" font-size="15.9697" font-family="F1"><tspan y="259.2" x="248.32 256.68693 260.25828 268.4028 276.00556 283.8307 297.21156 305.5629 310.21034 318.95936 326.5621 330.9522 336.861 345.61003 354.64756 358.2189 365.82167 370.61259 379.3616 385.12409 393.8731 402.81617 407.128 418.6608 422.23216 426.87959 435.6629 440.29414 448.64549 456.79 465.15693 473.90596 481.5087 489.33384 492.90519 501.84825 505.4196 509.09263 512.664 517.3114 525.29629 529.68637 537.28909 546.23208 551.99459 559.83908 563.1927 571.6567 580.4057 588.0084 592.00088">classmates registered with accessibility services. </tspan></text>
<text xml:space="preserve" transform="matrix(.0323565 0 0 .03039525 0 0)" font-size="327.68" font-family="F3"><tspan y="6984" x="5522.24 5636.928">&#x2022; </tspan></text>
<text xml:space="preserve" transform="matrix(.75 0 0 .75 0 0)" font-size="15.9697" font-family="F1"><tspan y="283.04" x="247.84 256.7216 265.4706 273.93455 283.06568 287.45579 295.05854 303.52247 311.35139 320.23298 329.3641 338.14744 347.02903 355.9106 359.58366 367.1864 371.83384 376.14567 385.02726 389.33909 393.7292 398.5201 407.30345 416.05247 420.44258 431.78108 440.66267 444.234 452.0785 460.8275 466.59 474.19276 477.7641 482.41154 490.3964 494.70823 503.5898 508.0267 512.4168 526.8659 535.32986 539.97726 548.72628 554.4888 558.0601 566.6838 575.7865 580.1766 587.7793 592.5702 600.9215 609.86459 618.48818 622.87826 632.1407 640.492 649.3736 658.5047 662.33749">Lead saxophonist of the University of Waterloo stage band. </tspan></text>
<text xml:space="preserve" transform="matrix(.0323565 0 0 .03039525 0 0)" font-size="327.68" font-family="F3"><tspan y="7568.16" x="5522.24 5636.928">&#x2022; </tspan></text>
<text xml:space="preserve" transform="matrix(.75 0 0 .75 0 0)" font-size="15.9697" font-family="F1"><tspan y="306.72" x="247.84 257.75868 263.52116 272.27018 279.87294 283.44429 292.5754 301.32444 310.20603 314.99696 319.38706 328.26866 332.58049 337.2117 347.592 356.4736 365.60475 374.35377 380.11625 384.42808 394.8848 408.26567 416.617 424.21977 433.10136 437.49147 448.19117 453.78056 462.66215 470.2649 474.25733 478.64744 490.07887 493.7519 502.63349 511.76463 515.757 520.0688 531.2195 540.1011 547.9262 552.5736 561.32266 570.2657 574.65579 586.1886 594.9376 603.68667 611.8312 615.4025 623.2277 627.6178 632.4087 641.2903 650.1719 655.9344 664.816 673.1673 686.54818 695.2972 704.1788 708.8262 716.4289 720.819 725.13076 734.0123 739.9211 744.31118 751.9139 756.7048 765.58639 774.71749 783.34109 792.22268 797.01358 804.6163">President of Super Smash Bros. Club. Hosted weekly tournaments for students.</tspan></text>
<clipPath id="cp5">
<path transform="matrix(.75,0,0,.75,0,0)" d="M 809.28 291.04 L 816 291.04 L 816 310.4 L 809.28 310.4 Z " fill-rule="evenodd"/>
</clipPath>
<g clip-path="url(#cp5)">
<text xml:space="preserve" transform="matrix(.75 0 0 .75 0 0)" font-size="15.9697" font-family="F1"><tspan y="306.72" x="809.28"> </tspan></text>
</g>
<clipPath id="cp6">
<path transform="matrix(.75,0,0,.75,0,0)" d="M 203.36 313.76 L 211.2 313.76 L 211.2 318.4 L 203.36 318.4 Z " fill-rule="evenodd"/>
</clipPath>
<g clip-path="url(#cp6)">
<text xml:space="preserve" transform="matrix(.75 0 0 .75 0 0)" font-size="14.6921" font-family="F3"><tspan y="327.04" x="203.36"> </tspan></text>
</g>
<path transform="matrix(.75,0,0,.75,0,0)" d="M 0 864.96 L 787.36 864.96 L 787.36 1056 L 0 1056 Z " fill="#ffffff"/>
<clipPath id="cp7">
<path transform="matrix(.75,0,0,.75,0,0)" d="M 0 859.84 L 792.64 859.84 L 792.64 1056 L 0 1056 Z " fill-rule="evenodd"/>
</clipPath>
<g clip-path="url(#cp7)">
<path transform="matrix(.75,0,0,.75,0,0)" stroke-width=".96" stroke-linecap="round" stroke-miterlimit="8" stroke-linejoin="miter" fill="none" stroke="#ffffff" d="M -27.52 864.96 L -27.52 1089.76 L 787.36 1089.76 L 787.36 864.96 Z "/>
</g>
<text xml:space="preserve" transform="matrix(.0323565 0 0 .03039525 0 0)" font-size="327.68" font-family="F3"><tspan y="21903.2" x="708.32 823.008">&#x2022; </tspan></text>
<text xml:space="preserve" transform="matrix(.75 0 0 .75 0 0)" font-size="15.9697" font-family="F1"><tspan y="887.68" x="40.64 55.089147 64.19188 69.954387 77.93923 86.688259 95.81937 100.13119 104.568088 113.44967 117.02102 120.59237 125.9104 130.38193 133.95328 147.33414 156.08316 160.47327 165.26418 174.14575 178.45758 186.06035 195.16307 204.10611 213.23723 222.1188 227.8813 232.52873 236.91884 241.55005 245.1214 250.71079 258.31355 263.10447 268.4225 276.24766 285.19068 293.54203 299.1314 303.5215 311.34666 315.99409 324.87568 334.0068 342.63044 351.51203 356.30296 363.8087 368.1988 372.84623 381.19758 389.18244 392.75379 401.63539 410.6729 415.06303 419.21516 428.09675 432.74418 438.50666 447.38825 456.3313 465.43403 473.80094 478.27247 481.8438 490.7254 499.607 504.23823 508.88566 517.669 521.9808 533.41226 542.2938 555.86807 564.99917 573.88076 578.52816 587.27719 592.8666 597.25668 607.95639 616.3233 619.67697 628.42599 637.5287 645.8956 654.5192">Worked full-time to support first-year students taking Introduction to Computer Science.</tspan></text>
<text xml:space="preserve" transform="matrix(.75 0 0 .75 0 0)" font-size="14.6921" font-family="F3"><tspan y="887.68" x="659.2"> </tspan></text>
<text xml:space="preserve" transform="matrix(.0323565 0 0 .03039525 0 0)" font-size="327.68" font-family="F3"><tspan y="22491.5" x="723.2 837.888">&#x2022; </tspan></text>
<text xml:space="preserve" transform="matrix(.75 0 0 .75 0 0)" font-size="15.9697" font-family="F1"><tspan y="911.52" x="40.64 51.790719 60.672307 68.49746 73.1449 81.89392 91.02503 95.41514 106.94795 115.571598 124.32062 132.30547 135.87682 143.86167 148.25177 157.13335 161.57024 166.00713 169.57848 177.94542 186.69445 191.08455 199.86788 208.74945 217.85218 223.61467 231.21744 235.05017 239.44028 244.23119 253.11277 257.7602 266.64179 272.40428 275.97563 284.32698 287.89833 295.40406 299.39649 303.7866 312.25053 321.1321 330.26325 334.65336 343.11729 351.9006 360.68394 365.33137 368.9027 377.7843 386.6659 395.5475 404.6502 412.15596 416.54606 425.6772 431.43968 440.32127 449.5837 454.90174 458.25538 467.13697 471.7682 480.5515 489.30055 492.8719 502.00303 506.39314 513.99588 522.7449 530.3476 537.9503 541.52169 550.40328 559.28488 566.8876 570.72036">Hosted weekly office hours, tutorials, and continuous drop-in help sessions. </tspan></text>
<text xml:space="preserve" transform="matrix(.0323565 0 0 .03039525 0 0)" font-size="327.68" font-family="F3"><tspan y="23079.7" x="723.2 837.888">&#x2022; </tspan></text>
<text xml:space="preserve" transform="matrix(.75 0 0 .75 0 0)" font-size="15.9697" font-family="F1"><tspan y="935.36" x="40.8 51.451669 60.333257 68.15841 79.69122 88.44025 94.20275 102.951778 111.894809 116.28492 124.11008 128.7575 137.63909 146.7702 155.39385 164.27542 168.92285 172.91529 180.51805 185.14926 194.0923 202.87563 211.62465 219.22742 223.87485 227.4462 236.32778 245.20935 252.81212 257.2022 266.46467 275.21369 279.65058 288.53218 294.29466 303.04368 307.43379 315.78514 324.66673 333.79786 338.18797 346.6519 351.08879 355.7362 364.35984 370.1223 374.51243 386.04524 394.79426 403.54328 411.68785 415.2592 423.08436 427.47447 431.1475 439.8965 448.26344 452.91087 461.79246 467.55494 476.30397 483.9067 487.89915">Answered student&#x2019;s questions before and after weekly lectures. </tspan></text>
<text xml:space="preserve" transform="matrix(.0323565 0 0 .03039525 0 0)" font-size="327.68" font-family="F3"><tspan y="23668" x="723.2 837.888">&#x2022; </tspan></text>
<text xml:space="preserve" transform="matrix(.75 0 0 .75 0 0)" font-size="15.9697" font-family="F1"><tspan y="959.2" x="40.8 49.681589 58.430616 66.894557 76.025669 80.41578 88.76712 93.157238 102.19477 107.957279 116.83886 125.72045 134.85158 139.1634 148.04499 152.67621 156.98804 165.86962 174.65294 179.04305 188.62487 199.16486 206.76763 211.15773 215.94864 224.73197 229.12207 242.69632 251.04766 256.63706 264.78163 269.17173 280.70454 289.45356 298.20259 306.18745 309.7588 317.74366 322.13377 330.5977 338.10343 345.70619 349.27754 358.22059 367.10218 380.48304 389.23207 398.33479 402.9822 410.58497 414.4177 418.8078 432.38206 435.9534 444.89646 449.54389 458.2929 464.2017 477.58256 481.57499 485.9651 494.31645 503.19804 512.3291 516.64089 520.95266 524.524 533.4056 541.7569 545.32827 549.7183 558.46737 566.45217 574.80349 588.0583 595.661 599.8131">Lead a group of 30 TAs to mark weekly assignments, midterm, and final exams. </tspan></text>
<text xml:space="preserve" transform="matrix(.0323565 0 0 .03039525 0 0)" font-size="327.68" font-family="F3"><tspan y="24256.2" x="723.2 837.888">&#x2022; </tspan></text>
<text xml:space="preserve" transform="matrix(.75 0 0 .75 0 0)" font-size="15.9697" font-family="F2" font-weight="bold"><tspan y="983.04" x="40.64 51.3397 60.47081 69.25882 78.38993 82.74885 91.513469 100.64458 110.4151 114.247829 123.02804 132.53345 136.68558 146.1364 155.6418 161.20156 169.38135 174.9411 183.72132 193.22672 203.12793 207.48685 216.99225 226.76277 230.7552 239.54323 248.99405 254.77214 264.22297">Received an outstanding co-op</tspan></text>
<text xml:space="preserve" transform="matrix(.75 0 0 .75 0 0)" font-size="15.9697" font-family="F1"><tspan y="983.04" x="274.24 278.6301 284.53889 292.89024 297.36177 300.9331 309.8147 318.85224 323.48347 332.6146 340.96595 348.47169 357.4147 366.54585 370.85768 379.9604 388.7437 393.13383 397.5707 406.31974 415.26277 424.3939 433.52503 441.66957 450.13349 458.11836 462.50846 466.94535 472.70783 481.49116 494.872 499.50325 507.106 511.5775 520.4591 529.40219 538.34518 547.22677 551.87417 559.47689 563.30966"> rating based on feedback from students. </tspan></text>
<text xml:space="preserve" transform="matrix(.0323565 0 0 .03039525 0 0)" font-size="327.68" font-family="F3"><tspan y="24844.5" x="723.2 837.888">&#x2022; </tspan></text>
<text xml:space="preserve" transform="matrix(.75 0 0 .75 0 0)" font-size="15.9697" font-family="F1"><tspan y="1006.88" x="40.8 51.25672 60.35945 69.49056 77.09332 81.74076 85.31211 89.78363 98.88636 103.5338 112.28282 121.41393 125.80404 134.15538 141.66114 146.05124 154.40258 158.79268 162.46572 171.21474 179.58168 184.0532 193.15593 198.74533 207.49436 213.25685 217.64696 229.17977 238.06134 247.00438 255.7877 260.1778 264.82524 273.70683 282.45585 286.84596 290.4173 299.2989 306.90165 311.69258 317.45506 326.33665 334.70356 339.35099 348.23258 353.82197 358.1338 369.6666 378.01795 385.52369 390.1549 399.0365 407.9181 412.38963 416.77973 425.24366 433.08815 441.43949 445.01084 448.36448 456.71583 465.97828 469.54963 478.29866 482.45079">Substituted as a lecturer when the instructor was not available. </tspan></text>
<path transform="matrix(.75,0,0,.75,0,0)" d="M 0 156 L 221.6 156 L 221.6 329.28 L 0 329.28 Z " fill="#ffffff"/>
<clipPath id="cp8">
<path transform="matrix(.75,0,0,.75,0,0)" d="M 0 156 L 221.76 156 L 221.76 329.44 L 0 329.44 Z " fill-rule="evenodd"/>
</clipPath>
<g clip-path="url(#cp8)">
<path transform="matrix(.75,0,0,.75,0,0)" stroke-width=".5" stroke-linecap="round" stroke-linejoin="round" fill="none" stroke="#ffffff" d="M -10.4 156 L -10.4 329.28 L 221.6 329.28 L 221.6 156 Z "/>
</g>
<text xml:space="preserve" transform="matrix(.75 0 0 .75 0 0)" font-size="18.6845" font-family="F2" font-weight="bold"><tspan y="179.2" x="34.4 45.539545 58.129686 72.7036 86.10571 97.44596 102.11709 113.70148 126.967479 140.38784 145.05896 158.47931 169.9108 182.05573">FRONT END DEV </tspan></text>
<text xml:space="preserve" transform="matrix(.0323565 0 0 .03039525 0 0)" font-size="327.68" font-family="F3"><tspan y="4911.2" x="797.44 912.128">&#x2022; </tspan></text>
<text xml:space="preserve" transform="matrix(.75 0 0 .75 0 0)" font-size="15.9697" font-family="F1"><tspan y="199.04" x="44.16 53.595224 61.58007 70.71118 79.460208 89.91692 98.38086 104.143367 107.714717 116.657749">TypeScript</tspan></text>
<text xml:space="preserve" transform="matrix(.75 0 0 .75 0 0)" font-size="18.6845" font-family="F1"><tspan y="199.04" x="121.6"> </tspan></text>
<text xml:space="preserve" transform="matrix(.0323565 0 0 .03039525 0 0)" font-size="327.68" font-family="F3"><tspan y="5424.48" x="789.92 904.608">&#x2022; </tspan></text>
<text xml:space="preserve" transform="matrix(.75 0 0 .75 0 0)" font-size="15.9697" font-family="F1"><tspan y="219.84" x="43.68 54.01196 62.760988 71.22492 79.59186 84.06338">React </tspan></text>
<text xml:space="preserve" transform="matrix(.0323565 0 0 .03039525 0 0)" font-size="327.68" font-family="F3"><tspan y="5937.76" x="789.92 904.608">&#x2022; </tspan></text>
<text xml:space="preserve" transform="matrix(.75 0 0 .75 0 0)" font-size="15.9697" font-family="F1"><tspan y="240.64" x="43.68 54.83072 64.265949 77.63121 86.512798">HTML </tspan></text>
<text xml:space="preserve" transform="matrix(.0323565 0 0 .03039525 0 0)" font-size="327.68" font-family="F3"><tspan y="6450.88" x="789.92 904.608">&#x2022; </tspan></text>
<text xml:space="preserve" transform="matrix(.75 0 0 .75 0 0)" font-size="15.9697" font-family="F1"><tspan y="261.44" x="43.68 55.111436 65.811138 76.19144">CSS </tspan></text>
<text xml:space="preserve" transform="matrix(.0323565 0 0 .03039525 0 0)" font-size="327.68" font-family="F3"><tspan y="6964.16" x="789.92 904.608">&#x2022; </tspan></text>
<text xml:space="preserve" transform="matrix(.75 0 0 .75 0 0)" font-size="15.9697" font-family="F1"><tspan y="282.24" x="43.68 55.51692 59.08827 63.879179">Git </tspan></text>
<text xml:space="preserve" transform="matrix(.0323565 0 0 .03039525 0 0)" font-size="327.68" font-family="F3"><tspan y="7477.44" x="789.92 904.608">&#x2022; </tspan></text>
<text xml:space="preserve" transform="matrix(.75 0 0 .75 0 0)" font-size="15.9697" font-family="F1"><tspan y="303.04" x="43.68 54.939889 64.04262 73.17373 81.92275 85.91518 89.494319 96.84038">Node.js </tspan></text>
<clipPath id="cp9">
<path transform="matrix(.0323565,0,0,.03039525,0,0)" d="M 789.92 7698.56 L 904.96 7698.56 L 904.96 8006.4 L 789.92 8006.4 Z " fill-rule="evenodd"/>
</clipPath>
<g clip-path="url(#cp9)">
<text xml:space="preserve" transform="matrix(.0323565 0 0 .03039525 0 0)" font-size="327.68" font-family="F3"><tspan y="7990.72" x="789.92">&#x2022;</tspan></text>
</g>
<clipPath id="cp10">
<path transform="matrix(.0323565,0,0,.03039525,0,0)" d="M 904.96 7698.56 L 1012.48 7698.56 L 1012.48 8006.4 L 904.96 8006.4 Z " fill-rule="evenodd"/>
</clipPath>
<g clip-path="url(#cp10)">
<text xml:space="preserve" transform="matrix(.0323565 0 0 .03039525 0 0)" font-size="327.68" font-family="F3"><tspan y="7990.72" x="904.96"> </tspan></text>
</g>
<clipPath id="cp11">
<path transform="matrix(.75,0,0,.75,0,0)" d="M 43.68 308.16 L 88.64 308.16 L 88.64 324.48 L 43.68 324.48 Z " fill-rule="evenodd"/>
</clipPath>
<g clip-path="url(#cp11)">
<text xml:space="preserve" transform="matrix(.75 0 0 .75 0 0)" font-size="15.9697" font-family="F1"><tspan y="323.84" x="43.68 54.01196 62.760988 72.023418 80.90501">Redux</tspan></text>
</g>
<clipPath id="cp12">
<path transform="matrix(.75,0,0,.75,0,0)" d="M 88.64 308.16 L 97.92 308.16 L 97.92 324.48 L 88.64 324.48 Z " fill-rule="evenodd"/>
</clipPath>
<g clip-path="url(#cp12)">
<text xml:space="preserve" transform="matrix(.75 0 0 .75 0 0)" font-size="15.9697" font-family="F1"><tspan y="323.84" x="88.64"> </tspan></text>
</g>
<path transform="matrix(.75,0,0,.75,0,0)" d="M .32 328.64 L 815.52 328.64 L 815.52 363.84 L .32 363.84 Z " fill="#002060"/>
<clipPath id="cp13">
<path transform="matrix(.75,0,0,.75,0,0)" d="M 0 323.52 L 816 323.52 L 816 369.12 L 0 369.12 Z " fill-rule="evenodd"/>
</clipPath>
<g clip-path="url(#cp13)">
<path transform="matrix(.75,0,0,.75,0,0)" stroke-width=".96" stroke-linecap="round" stroke-miterlimit="8" stroke-linejoin="miter" fill="none" stroke="#000000" d="M .32 328.64 L .32 363.84 L 815.52 363.84 L 815.52 328.64 Z "/>
</g>
<text fill="#ffffff" xml:space="preserve" transform="matrix(.75 0 0 .75 0 0)" font-size="19.962101" font-family="F3"><tspan y="352.96" x="10.4 15.946112 21.492224 27.038336 32.827344 46.002328 60.418317 75.94548 85.92653 99.2411 113.65708 125.85072 139.16529">    PROJECTS </tspan></text>
</g>
</svg>
